# xmcd
#
# Track frame offsets:
#	150
#	13409
#	21306
#	32859
#	43182
#	54008
#	64643
#	75656
#	87700
#	100946
#	112990
#	124357
#	134103
#	144753
#	156420
#	163666
#	172825
#	184436
#	192897
#	204042
#	213107
#	225284
#	237409
#	250885
#	260924
#	271913
#	284036
#	293783
#
# Disc length: 4077 seconds
#
# Revision: 1
# Processed by: cddbd v1.5.1PL2 Copyright (c) Steve Scherf et al.
# Submitted via: audiograbber 1.83.01
#
DISCID=9e0feb1c
DTITLE=Various Artist - Chicken Shack Boogie Vol 7
DYEAR=1900
DGENRE=R&B
TTITLE0=Duke Jenkins - The Duke Walks
TTITLE1=Dave Bartholomew - Kiss Me Baby
TTITLE2=Billy Tate  - Right From Wrong
TTITLE3=Roy Agee - The Wobble Loo
TTITLE4=Christine Kittrell - Call His Name
TTITLE5=Preston lowe - The Huckleboogie
TTITLE6=Marie Jenkins - Jump with Me Baby
TTITLE7=James Wayne - Please Be Mine
TTITLE8=Rollee McGill - You Left Me Here to Cry
TTITLE9=Boogie Ramblers - Such as Love
TTITLE10=Youngsters - Rock And Roll Cowboy
TTITLE11=Barbie Gaye - My Boy Lollipop
TTITLE12=Chuck Edwards - Morning Train
TTITLE13=Brian Mickle - Flatfoot Sam
TTITLE14=Edgar Blanchard - How Many More Years
TTITLE15=Willie egans - It's a Shame
TTITLE16=Jo Ann Mitchell - I'll make it up to You
TTITLE17=Tony Harris - Try this Heart of Mine
TTITLE18=Joe coldwell - Rowdy Mae is Back
TTITLE19=Phillip Walker - Playing in the Park
TTITLE20=Louis Myers - Just Whaling
TTITLE21=Alonzo Scales - Hard Luck Child
TTITLE22=Honey Brown - Rockin' and Jumpin'
TTITLE23=Jesse Allen - What a Party
TTITLE24=Sticks Herman - The natural thing to do
TTITLE25=Willie Johnson - Don't Tell Mama
TTITLE26=Pee Wee Crayton - Yours Truly
TTITLE27=Big Mama Thornton - Don't Talk Back
EXTD=
EXTT0=
EXTT1=
EXTT2=
EXTT3=
EXTT4=
EXTT5=
EXTT6=
EXTT7=
EXTT8=
EXTT9=
EXTT10=
EXTT11=
EXTT12=
EXTT13=
EXTT14=
EXTT15=
EXTT16=
EXTT17=
EXTT18=
EXTT19=
EXTT20=
EXTT21=
EXTT22=
EXTT23=
EXTT24=
EXTT25=
EXTT26=
EXTT27=
PLAYORDER=
